<!DOCTYPE svg PUBLIC "-//W3C//DTD SVG 1.1//EN" "http://www.w3.org/Graphics/SVG/1.1/DTD/svg11.dtd">
<!-- Uploaded to: SVG Repo, www.svgrepo.com, Transformed by: SVG Repo Mixer Tools -->
<svg fill="#000000" height="800px" width="800px" version="1.1" id="Capa_1" xmlns="http://www.w3.org/2000/svg" xmlns:xlink="http://www.w3.org/1999/xlink" viewBox="0 0 433.993 433.993" xml:space="preserve">
<g id="SVGRepo_bgCarrier" stroke-width="0"/>
<g id="SVGRepo_tracerCarrier" stroke-linecap="round" stroke-linejoin="round"/>
<g id="SVGRepo_iconCarrier"> <g> <path d="M425.43,256.538l-52.776-28.916c-3.906-2.142-8.3-2.529-12.281-1.436c4.05-12.776,3.675-26.27-0.538-38.474v-76.083 c0-8.064-6.537-14.603-14.602-14.603H42.119c-8.065,0-14.604,6.538-14.604,14.603v189.951H6.669c-3.683,0-6.669,2.985-6.669,6.671 c0,15.832,12.882,28.715,28.716,28.715h232.011V324.55c0-4.416,3.581-7.998,7.998-7.998c4.417,0,7.998,3.582,7.998,7.998v12.416 h13.117V324.55c0-4.416,3.582-7.998,7.998-7.998c4.418,0,7.999,3.582,7.999,7.998v12.416h52.668 c15.835,0,28.717-12.883,28.717-28.715c0-3.686-2.986-6.671-6.669-6.671h-20.715v-43.4l49.756,27.264 c7.982,4.373,17.998,1.448,22.371-6.534C436.336,270.927,433.411,260.913,425.43,256.538z M334.429,291.588H52.922V122.432h281.507 v33.363c-0.98-0.611-1.975-1.207-3.001-1.769c-29.6-16.219-66.875-5.332-83.094,24.268c-16.219,29.6-5.333,66.876,24.268,83.094 c20.068,10.996,43.657,9.521,61.827-1.788V291.588z M322.917,176.044c0,3.649-0.789,5.474-2.244,5.474 c-1.455,0-2.342-1.751-2.318-5.425c-0.025-3.724,0.913-5.474,2.293-5.474C322.152,170.619,322.917,172.492,322.917,176.044z M281.865,176.044c0,3.649-0.789,5.474-2.244,5.474c-1.455,0-2.342-1.751-2.318-5.425c-0.008-1.211,0.095-2.191,0.272-2.993 c1.015-0.714,2.057-1.385,3.126-2.005C281.47,171.85,281.865,173.511,281.865,176.044z M265.875,229.798 c0.013-0.001,0.024-0.007,0.038-0.007c1.155,0,1.87,1.116,2.141,3.239C267.276,231.984,266.55,230.906,265.875,229.798z M332.166,237.473c-0.085-0.641-0.133-1.367-0.128-2.207c-0.024-3.724,0.912-5.475,2.294-5.475c1.049,0,1.73,0.933,2.051,2.691 C335.093,234.273,333.683,235.938,332.166,237.473z M339.179,228.07c-0.168,0.307-0.349,0.601-0.524,0.9 c-0.957-1.242-2.351-2.014-4.274-2.014c-4.143,0-6.115,3.674-6.115,8.309c0.01,1.839,0.321,3.538,0.958,4.915 c-12.995,10.862-31.845,13.308-47.571,4.69c-0.924-0.507-1.813-1.053-2.684-1.616h3.217v-16.027h-3.107l-4.241,1.972l0.616,2.811 l3.058-1.455h0.049v12.434c-2.491-1.653-4.76-3.532-6.789-5.601c0.101-0.699,0.156-1.439,0.156-2.222 c0-4.39-1.677-8.211-5.967-8.211c-0.568,0-1.092,0.075-1.579,0.206c-6.236-12.107-6.555-27.002,0.468-39.818 c0.619-1.13,1.29-2.213,1.994-3.263l1.658-2.31c1.532-1.982,3.222-3.792,5.036-5.436c0.088,4.424,1.917,8.016,5.984,8.016 c4.093,0,6.09-3.402,6.09-8.358c0-2.571-0.581-4.94-1.92-6.468c10.508-5.025,22.943-5.681,34.264-1.073 c-2.277,1.262-3.375,4.183-3.375,7.64c0.024,4.536,1.849,8.26,5.992,8.26c4.093,0,6.09-3.402,6.09-8.358 c0-1.033-0.097-2.031-0.294-2.959c2.566,1.801,4.877,3.852,6.926,6.099v4.948h3.625v-0.374c3.095,4.517,5.263,9.578,6.45,14.871 c0.364,1.621,0.656,3.773,0.656,3.773C345.132,210.931,343.645,219.92,339.179,228.07z"/> <polygon points="292.195,171.382 292.245,171.382 292.245,184.082 295.87,184.082 295.87,168.054 292.762,168.054 288.521,170.026 289.138,172.837 "/> <polygon points="305.879,171.382 305.929,171.382 305.929,184.082 309.554,184.082 309.554,168.054 306.446,168.054 302.206,170.026 302.822,172.837 "/> <path d="M265.962,197.37c-4.143,0-6.115,3.674-6.115,8.31c0.024,4.536,1.849,8.26,5.992,8.26c4.093,0,6.09-3.403,6.09-8.358 C271.929,201.191,270.252,197.37,265.962,197.37z M265.938,211.104c-1.455,0-2.342-1.751-2.318-5.425 c-0.024-3.724,0.913-5.475,2.293-5.475c1.504,0,2.268,1.874,2.268,5.426C268.181,209.279,267.392,211.104,265.938,211.104z"/> <polygon points="282.186,197.641 279.079,197.641 274.838,199.613 275.455,202.424 278.512,200.969 278.561,200.969 278.561,213.669 282.186,213.669 "/> <path d="M293.206,213.939c4.093,0,6.09-3.403,6.09-8.358c0-4.39-1.677-8.211-5.967-8.211c-4.142,0-6.115,3.674-6.115,8.31 C287.239,210.215,289.064,213.939,293.206,213.939z M293.28,200.205c1.504,0,2.269,1.874,2.269,5.426 c0,3.648-0.789,5.474-2.244,5.474c-1.455,0-2.342-1.751-2.318-5.425C290.963,201.956,291.899,200.205,293.28,200.205z"/> <polygon points="305.879,200.969 305.929,200.969 305.929,213.669 309.554,213.669 309.554,197.641 306.446,197.641 302.206,199.613 302.822,202.424 "/> <polygon points="319.563,200.969 319.612,200.969 319.612,213.669 323.237,213.669 323.237,197.641 320.13,197.641 315.889,199.613 316.505,202.424 "/> <path d="M334.258,213.939c4.093,0,6.09-3.403,6.09-8.358c0-4.39-1.677-8.211-5.967-8.211c-4.143,0-6.115,3.674-6.115,8.31 C328.29,210.215,330.115,213.939,334.258,213.939z M334.332,200.205c1.504,0,2.268,1.874,2.268,5.426 c0,3.648-0.789,5.474-2.244,5.474c-1.455,0-2.342-1.751-2.318-5.425C332.014,201.956,332.951,200.205,334.332,200.205z"/> <path d="M293.206,243.526c4.093,0,6.09-3.403,6.09-8.358c0-4.39-1.677-8.211-5.967-8.211c-4.142,0-6.115,3.674-6.115,8.309 C287.239,239.802,289.064,243.526,293.206,243.526z M293.28,229.792c1.504,0,2.269,1.874,2.269,5.426 c0,3.648-0.789,5.474-2.244,5.474c-1.455,0-2.342-1.751-2.318-5.425C290.963,231.543,291.899,229.792,293.28,229.792z"/> <polygon points="305.879,230.556 305.929,230.556 305.929,243.255 309.554,243.255 309.554,227.228 306.446,227.228 302.206,229.2 302.822,232.011 "/> <path d="M320.574,243.526c4.093,0,6.09-3.403,6.09-8.358c0-4.39-1.677-8.211-5.967-8.211c-4.143,0-6.115,3.674-6.115,8.309 C314.606,239.802,316.431,243.526,320.574,243.526z M320.648,229.792c1.504,0,2.269,1.874,2.269,5.426 c0,3.648-0.789,5.474-2.244,5.474c-1.455,0-2.342-1.751-2.318-5.425C318.33,231.543,319.267,229.792,320.648,229.792z"/> </g> </g>
</svg>