<svg width="1743" height="673" viewBox="0 0 1743 673" fill="none" xmlns="http://www.w3.org/2000/svg">
<g filter="url(#filter0_d_127_2930)">
<path d="M308.585 378.368L119.605 284.597C118.009 283.805 117 282.179 117 280.4V251.027C117 247.548 120.664 245.281 123.785 246.83L312.765 340.601C314.361 341.393 315.37 343.019 315.37 344.799V374.171C315.37 377.651 311.707 379.917 308.585 378.368Z" fill="url(#paint0_linear_127_2930)"/>
<path d="M308.585 536.561L119.605 442.789C118.009 441.997 117 440.372 117 438.592V409.22C117 405.74 120.664 403.474 123.785 405.022L312.765 498.794C314.361 499.586 315.37 501.212 315.37 502.991V532.363C315.37 535.843 311.707 538.109 308.585 536.561Z" fill="url(#paint1_linear_127_2930)"/>
<path d="M308.585 458.05L119.605 364.279C118.009 363.487 117 361.861 117 360.082V330.709C117 327.23 120.664 324.963 123.785 326.512L312.765 420.283C314.361 421.075 315.37 422.701 315.37 424.481V453.853C315.37 457.333 311.707 459.599 308.585 458.05Z" fill="url(#paint2_linear_127_2930)"/>
<path d="M150.114 379.515L119.595 364.282C118.005 363.488 117 361.865 117 360.09V251.012C117 247.536 120.657 245.27 123.777 246.811L154.296 261.886C155.896 262.677 156.909 264.305 156.909 266.087V375.323C156.909 378.807 153.236 381.074 150.114 379.515Z" fill="url(#paint3_linear_127_2930)"/>
<path d="M308.585 536.559L278.066 521.41C276.471 520.618 275.462 518.992 275.462 517.213V409.303C275.462 405.832 279.109 403.565 282.229 405.097L312.747 420.081C314.353 420.87 315.37 422.501 315.37 424.287V532.363C315.37 535.843 311.706 538.108 308.585 536.559Z" fill="url(#paint4_linear_127_2930)"/>
<path d="M337.415 378.368L526.395 284.597C527.991 283.805 529 282.179 529 280.4V251.027C529 247.548 525.336 245.281 522.215 246.83L333.235 340.601C331.639 341.393 330.63 343.019 330.63 344.799V374.171C330.63 377.651 334.293 379.917 337.415 378.368Z" fill="url(#paint5_linear_127_2930)"/>
<path d="M337.415 536.561L526.395 442.789C527.991 441.997 529 440.372 529 438.592V409.22C529 405.74 525.336 403.474 522.215 405.022L333.235 498.794C331.639 499.586 330.63 501.212 330.63 502.991V532.363C330.63 535.843 334.293 538.109 337.415 536.561Z" fill="url(#paint6_linear_127_2930)"/>
<path d="M416.067 497.38L446.585 482.161C448.177 481.368 449.182 479.744 449.182 477.968V290.853C449.182 287.377 445.526 285.111 442.405 286.652L411.886 301.727C410.286 302.518 409.274 304.146 409.274 305.928V493.186C409.274 496.67 412.945 498.936 416.067 497.38Z" fill="url(#paint7_linear_127_2930)"/>
<path d="M159.507 254.135C160.827 254.794 162.381 254.795 163.702 254.137L354.431 159.212C357.907 157.482 357.896 152.527 354.412 150.813L324.504 136.101C323.187 135.453 321.642 135.457 320.329 136.113L130.094 231.068C126.634 232.796 126.634 237.726 130.094 239.453L159.507 254.135Z" fill="url(#paint8_linear_127_2930)"/>
<path d="M487.08 254.135C485.76 254.794 484.206 254.795 482.885 254.137L291.972 159.121C288.53 157.408 288.499 152.516 291.919 150.759L321.466 135.576C322.799 134.891 324.379 134.883 325.719 135.554L516.51 231.065C519.966 232.795 519.963 237.721 516.505 239.447L487.08 254.135Z" fill="url(#paint9_linear_127_2930)"/>
<path d="M304.806 322.55V184.557C304.806 183.991 304.909 183.431 305.109 182.902L318.496 147.488C320.006 143.492 325.645 143.43 327.244 147.391L342.024 184.021C342.251 184.584 342.366 185.186 342.364 185.792L341.793 322.523C341.785 324.334 340.733 325.979 339.091 326.748L325.025 333.33C323.744 333.929 322.26 333.92 320.987 333.305L307.456 326.769C305.836 325.986 304.806 324.347 304.806 322.55Z" fill="url(#paint10_linear_127_2930)"/>
</g>
<g filter="url(#filter1_d_127_2930)">
<path d="M610.856 263V246.104H658.856L663.848 240.984V227.8L658.856 222.68L621.608 222.808L607.4 208.472V182.872L621.608 168.664H678.568V185.56H632.232L627.24 190.68V201.048L632.232 206.168H669.48L683.688 220.376V248.792L669.48 263H610.856ZM713.165 263V246.616H723.149V185.048H713.165V168.664H752.589V185.048H742.605L742.349 246.616H752.589V263H713.165ZM808.551 263V229.208L803.815 225.112L776.295 168.664H799.207L816.615 211.032H820.455L837.735 168.664H860.647L833.127 225.112L828.391 229.208V263H808.551ZM877.92 263L908.896 171.224H932.576L963.68 263H942.816L925.664 203.736C925.237 202.285 924.725 200.451 924.128 198.232C923.531 196.013 922.933 193.752 922.336 191.448C921.739 189.144 921.227 187.139 920.8 185.432C920.373 187.139 919.819 189.272 919.136 191.832C918.539 194.307 917.941 196.696 917.344 199C916.832 201.219 916.405 202.797 916.064 203.736L898.784 263H877.92ZM989.91 263V168.664H1049.56L1063.77 182.872V215.384L1051.86 227.16L1067.09 263H1045.97L1032.41 229.592H1009.88V263H989.91ZM1009.88 213.464H1039.06L1044.18 208.472L1044.05 189.784L1039.06 184.792H1009.88V213.464ZM1088.83 263L1119.8 171.224H1143.48L1174.59 263H1153.72L1136.57 203.736C1136.14 202.285 1135.63 200.451 1135.03 198.232C1134.44 196.013 1133.84 193.752 1133.24 191.448C1132.64 189.144 1132.13 187.139 1131.71 185.432C1131.28 187.139 1130.72 189.272 1130.04 191.832C1129.44 194.307 1128.85 196.696 1128.25 199C1127.74 201.219 1127.31 202.797 1126.97 203.736L1109.69 263H1088.83ZM1266 263V185.688H1239.76V168.664H1312.34V185.688H1285.97V263H1266ZM1337.8 263V246.872H1402.82V263H1337.8ZM1345.48 223.448V207.32H1395.14V223.448H1345.48ZM1340.36 187.736V171.608H1400.26V187.736H1340.36ZM1448.26 263L1434.05 248.792V182.872L1448.26 168.664H1494.72L1508.42 182.232L1495.75 194.392L1485.89 184.792H1459.14L1454.02 189.784V241.752L1459.14 246.872H1486.91L1496.64 237.272L1509.31 249.432L1495.75 263H1448.26ZM1539.38 263V168.664H1559.34V205.144H1596.08V168.664H1616.05V263H1596.08V221.528H1559.34V263H1539.38Z" fill="url(#paint11_linear_127_2930)"/>
</g>
<line x1="601.016" y1="313" x2="1626" y2="319.113" stroke="url(#paint12_linear_127_2930)" stroke-width="2"/>
<g filter="url(#filter2_d_127_2930)">
<path d="M604.968 409.113V403.737H610.728V367.321H604.968V361.945H622.312V367.321H616.552V403.737H622.312V409.113H604.968ZM690.698 409.113V361.945H698.634L719.69 399.897V361.945H725.514V409.113H718.602L697.93 371.865H696.522V409.113H690.698ZM795.516 409.113V361.945H803.452L824.508 399.897V361.945H830.332V409.113H823.42L802.748 371.865H801.34V409.113H795.516ZM905.837 409.113L899.117 402.393V368.665L905.837 361.945H928.109L934.829 368.665V402.393L928.109 409.113H905.837ZM908.461 403.929H925.485L929.005 400.409V370.649L925.485 367.129H908.461L904.941 370.649V400.409L908.461 403.929ZM1014.66 409.113L998.665 361.945H1004.81L1018.44 403.545H1019.85L1033.48 361.945H1039.62L1023.62 409.113H1014.66ZM1099.34 409.113L1116.23 363.225H1121.42L1138.25 409.113H1132.3L1120.91 376.025C1120.78 375.684 1120.56 375.065 1120.27 374.169C1119.97 373.273 1119.67 372.356 1119.37 371.417C1119.11 370.436 1118.9 369.689 1118.73 369.177C1118.52 370.031 1118.28 370.905 1118.03 371.801C1117.81 372.655 1117.58 373.444 1117.32 374.169C1117.11 374.895 1116.92 375.513 1116.75 376.025L1105.16 409.113H1099.34ZM1212.07 409.113V367.321H1198.05V361.945H1231.91V367.321H1217.89V409.113H1212.07ZM1295.57 409.113V403.737H1301.33V367.321H1295.57V361.945H1312.91V367.321H1307.15V403.737H1312.91V409.113H1295.57ZM1386.8 409.113L1380.08 402.393V368.665L1386.8 361.945H1409.07L1415.79 368.665V402.393L1409.07 409.113H1386.8ZM1389.42 403.929H1406.45L1409.97 400.409V370.649L1406.45 367.129H1389.42L1385.9 370.649V400.409L1389.42 403.929ZM1484.61 409.113V361.945H1492.55L1513.6 399.897V361.945H1519.43V409.113H1512.52L1491.84 371.865H1490.44V409.113H1484.61ZM1589.49 409.113V403.737H1612.73L1616.18 400.217V390.809L1612.73 387.289H1594.49L1587.83 380.633V368.665L1594.49 361.945H1619.57V367.321H1597.11L1593.59 370.841L1593.65 378.649L1597.11 382.169H1615.35L1622.01 388.889V402.393L1615.35 409.113H1589.49Z" fill="url(#paint13_linear_127_2930)"/>
</g>
<path d="M602.8 530.113V525.505H605.608V508.189H602.8V503.581H613.888V508.189H611.08L611.008 525.505H613.888V530.113H602.8ZM637.799 530.113V503.581H644.387L654.107 520.753V503.581H659.543V530.113H653.927L644.315 513.085H643.235V530.113H637.799ZM684.31 530.113V503.581H690.898L700.618 520.753V503.581H706.054V530.113H700.438L690.826 513.085H689.746V530.113H684.31ZM734.132 530.113L730.136 526.117V507.577L734.132 503.581H748.388L752.42 507.577V526.117L748.388 530.113H734.132ZM737.192 525.577H745.364L746.804 524.137V509.521L745.328 508.117H737.192L735.752 509.521V524.137L737.192 525.577ZM781.496 530.113L773.792 503.581H780.056L785.636 525.433H786.716L792.296 503.581H798.524L790.82 530.113H781.496ZM816.364 530.113L824.572 503.581H833.392L841.6 530.113H835.66L834.004 524.245H823.96L822.34 530.113H816.364ZM825.256 519.673H832.708L829.54 508.261H828.46L825.256 519.673ZM866.181 530.113V508.369H858.801V503.581H879.213V508.369H871.797V530.113H866.181ZM901.71 530.113V503.581H920.862V508.369H907.326V514.057H919.602V518.665H907.326V525.325H920.862V530.113H901.71ZM944.522 530.113V525.037H949.742V530.113H944.522ZM1005.99 530.113L1001.99 526.117V507.577L1005.99 503.581H1019.05L1022.91 507.397L1019.34 510.817L1016.57 508.117H1009.05L1007.61 509.521V524.137L1009.05 525.577H1016.86L1019.59 522.877L1023.16 526.297L1019.34 530.113H1005.99ZM1046.37 530.113V503.581H1063.15L1067.14 507.577V516.721L1063.8 520.033L1068.08 530.113H1062.14L1058.32 520.717H1051.99V530.113H1046.37ZM1051.99 516.181H1060.2L1061.64 514.777L1061.6 509.521L1060.2 508.117H1051.99V516.181ZM1091.65 530.113V503.581H1110.8V508.369H1097.27V514.057H1109.54V518.665H1097.27V525.325H1110.8V530.113H1091.65ZM1132.23 530.113L1140.44 503.581H1149.26L1157.47 530.113H1151.53L1149.87 524.245H1139.83L1138.21 530.113H1132.23ZM1141.12 519.673H1148.58L1145.41 508.261H1144.33L1141.12 519.673ZM1182.05 530.113V508.369H1174.67V503.581H1195.08V508.369H1187.66V530.113H1182.05ZM1217.58 530.113V503.581H1236.73V508.369H1223.19V514.057H1235.47V518.665H1223.19V525.325H1236.73V530.113H1217.58ZM1260.39 530.113V525.037H1265.61V530.113H1260.39ZM1318.58 530.113V503.581H1337.73V508.369H1324.19V514.057H1336.47V518.665H1324.19V525.325H1337.73V530.113H1318.58ZM1361.68 530.113V503.581H1367.29V525.325H1379.79V530.113H1361.68ZM1402.39 530.113V503.581H1421.54V508.369H1408V514.057H1420.28V518.665H1408V525.325H1421.54V530.113H1402.39ZM1450.67 530.113L1442.97 503.581H1449.23L1454.81 525.433H1455.89L1461.47 503.581H1467.7L1459.99 530.113H1450.67ZM1485.54 530.113L1493.75 503.581H1502.57L1510.78 530.113H1504.84L1503.18 524.245H1493.14L1491.52 530.113H1485.54ZM1494.43 519.673H1501.88L1498.72 508.261H1497.64L1494.43 519.673ZM1535.36 530.113V508.369H1527.98V503.581H1548.39V508.369H1540.97V530.113H1535.36ZM1570.88 530.113V503.581H1590.04V508.369H1576.5V514.057H1588.78V518.665H1576.5V525.325H1590.04V530.113H1570.88ZM1613.7 530.113V525.037H1618.92V530.113H1613.7Z" fill="url(#paint14_linear_127_2930)"/>
<path d="M1694.68 46V35.552H1691.18V34.208H1699.64V35.552H1696.14V46H1694.68ZM1701.24 46V34.208H1703.22L1706.93 43.632L1710.66 34.208H1712.66V46H1711.19V36.432L1707.35 46H1706.53L1702.69 36.448V46H1701.24Z" fill="#FD1D1D"/>
<circle cx="1702.5" cy="40.5" r="19.5" stroke="#FD1D1D" stroke-width="2"/>
<defs>
<filter id="filter0_d_127_2930" x="113" y="135.057" width="420" height="410" filterUnits="userSpaceOnUse" color-interpolation-filters="sRGB">
<feFlood flood-opacity="0" result="BackgroundImageFix"/>
<feColorMatrix in="SourceAlpha" type="matrix" values="0 0 0 0 0 0 0 0 0 0 0 0 0 0 0 0 0 0 127 0" result="hardAlpha"/>
<feOffset dy="4"/>
<feGaussianBlur stdDeviation="2"/>
<feComposite in2="hardAlpha" operator="out"/>
<feColorMatrix type="matrix" values="0 0 0 0 0 0 0 0 0 0 0 0 0 0 0 0 0 0 0.25 0"/>
<feBlend mode="normal" in2="BackgroundImageFix" result="effect1_dropShadow_127_2930"/>
<feBlend mode="normal" in="SourceGraphic" in2="effect1_dropShadow_127_2930" result="shape"/>
</filter>
<filter id="filter1_d_127_2930" x="603.4" y="168.664" width="1016.65" height="102.336" filterUnits="userSpaceOnUse" color-interpolation-filters="sRGB">
<feFlood flood-opacity="0" result="BackgroundImageFix"/>
<feColorMatrix in="SourceAlpha" type="matrix" values="0 0 0 0 0 0 0 0 0 0 0 0 0 0 0 0 0 0 127 0" result="hardAlpha"/>
<feOffset dy="4"/>
<feGaussianBlur stdDeviation="2"/>
<feComposite in2="hardAlpha" operator="out"/>
<feColorMatrix type="matrix" values="0 0 0 0 0 0 0 0 0 0 0 0 0 0 0 0 0 0 0.25 0"/>
<feBlend mode="normal" in2="BackgroundImageFix" result="effect1_dropShadow_127_2930"/>
<feBlend mode="normal" in="SourceGraphic" in2="effect1_dropShadow_127_2930" result="shape"/>
</filter>
<filter id="filter2_d_127_2930" x="600.969" y="361.945" width="1025.04" height="55.168" filterUnits="userSpaceOnUse" color-interpolation-filters="sRGB">
<feFlood flood-opacity="0" result="BackgroundImageFix"/>
<feColorMatrix in="SourceAlpha" type="matrix" values="0 0 0 0 0 0 0 0 0 0 0 0 0 0 0 0 0 0 127 0" result="hardAlpha"/>
<feOffset dy="4"/>
<feGaussianBlur stdDeviation="2"/>
<feComposite in2="hardAlpha" operator="out"/>
<feColorMatrix type="matrix" values="0 0 0 0 0 0 0 0 0 0 0 0 0 0 0 0 0 0 0.25 0"/>
<feBlend mode="normal" in2="BackgroundImageFix" result="effect1_dropShadow_127_2930"/>
<feBlend mode="normal" in="SourceGraphic" in2="effect1_dropShadow_127_2930" result="shape"/>
</filter>
<linearGradient id="paint0_linear_127_2930" x1="117" y1="336.057" x2="529" y2="336.057" gradientUnits="userSpaceOnUse">
<stop stop-color="#833AB4"/>
<stop offset="0.5" stop-color="#FD1D1D"/>
<stop offset="1" stop-color="#FCB045"/>
</linearGradient>
<linearGradient id="paint1_linear_127_2930" x1="117" y1="336.057" x2="529" y2="336.057" gradientUnits="userSpaceOnUse">
<stop stop-color="#833AB4"/>
<stop offset="0.5" stop-color="#FD1D1D"/>
<stop offset="1" stop-color="#FCB045"/>
</linearGradient>
<linearGradient id="paint2_linear_127_2930" x1="117" y1="336.057" x2="529" y2="336.057" gradientUnits="userSpaceOnUse">
<stop stop-color="#833AB4"/>
<stop offset="0.5" stop-color="#FD1D1D"/>
<stop offset="1" stop-color="#FCB045"/>
</linearGradient>
<linearGradient id="paint3_linear_127_2930" x1="117" y1="336.057" x2="529" y2="336.057" gradientUnits="userSpaceOnUse">
<stop stop-color="#833AB4"/>
<stop offset="0.5" stop-color="#FD1D1D"/>
<stop offset="1" stop-color="#FCB045"/>
</linearGradient>
<linearGradient id="paint4_linear_127_2930" x1="117" y1="336.057" x2="529" y2="336.057" gradientUnits="userSpaceOnUse">
<stop stop-color="#833AB4"/>
<stop offset="0.5" stop-color="#FD1D1D"/>
<stop offset="1" stop-color="#FCB045"/>
</linearGradient>
<linearGradient id="paint5_linear_127_2930" x1="117" y1="336.057" x2="529" y2="336.057" gradientUnits="userSpaceOnUse">
<stop stop-color="#833AB4"/>
<stop offset="0.5" stop-color="#FD1D1D"/>
<stop offset="1" stop-color="#FCB045"/>
</linearGradient>
<linearGradient id="paint6_linear_127_2930" x1="117" y1="336.057" x2="529" y2="336.057" gradientUnits="userSpaceOnUse">
<stop stop-color="#833AB4"/>
<stop offset="0.5" stop-color="#FD1D1D"/>
<stop offset="1" stop-color="#FCB045"/>
</linearGradient>
<linearGradient id="paint7_linear_127_2930" x1="117" y1="336.057" x2="529" y2="336.057" gradientUnits="userSpaceOnUse">
<stop stop-color="#833AB4"/>
<stop offset="0.5" stop-color="#FD1D1D"/>
<stop offset="1" stop-color="#FCB045"/>
</linearGradient>
<linearGradient id="paint8_linear_127_2930" x1="117" y1="336.057" x2="529" y2="336.057" gradientUnits="userSpaceOnUse">
<stop stop-color="#833AB4"/>
<stop offset="0.5" stop-color="#FD1D1D"/>
<stop offset="1" stop-color="#FCB045"/>
</linearGradient>
<linearGradient id="paint9_linear_127_2930" x1="117" y1="336.057" x2="529" y2="336.057" gradientUnits="userSpaceOnUse">
<stop stop-color="#833AB4"/>
<stop offset="0.5" stop-color="#FD1D1D"/>
<stop offset="1" stop-color="#FCB045"/>
</linearGradient>
<linearGradient id="paint10_linear_127_2930" x1="117" y1="336.057" x2="529" y2="336.057" gradientUnits="userSpaceOnUse">
<stop stop-color="#833AB4"/>
<stop offset="0.5" stop-color="#FD1D1D"/>
<stop offset="1" stop-color="#FCB045"/>
</linearGradient>
<linearGradient id="paint11_linear_127_2930" x1="623.283" y1="219.641" x2="1599.19" y2="230.453" gradientUnits="userSpaceOnUse">
<stop stop-color="#833AB4"/>
<stop offset="0.5" stop-color="#FD1D1D"/>
<stop offset="1" stop-color="#FCB045"/>
</linearGradient>
<linearGradient id="paint12_linear_127_2930" x1="596.52" y1="308.701" x2="1625.95" y2="319.778" gradientUnits="userSpaceOnUse">
<stop stop-color="#833AB4"/>
<stop offset="0.5" stop-color="#FD1D1D"/>
<stop offset="1" stop-color="#FCB045"/>
</linearGradient>
<linearGradient id="paint13_linear_127_2930" x1="1531.52" y1="384.056" x2="617.935" y2="384.056" gradientUnits="userSpaceOnUse">
<stop stop-color="#FCB045"/>
<stop offset="0.5" stop-color="#FD1D1D"/>
<stop offset="1" stop-color="#833AB4"/>
</linearGradient>
<linearGradient id="paint14_linear_127_2930" x1="1531.52" y1="515.86" x2="617.935" y2="515.861" gradientUnits="userSpaceOnUse">
<stop offset="0.5" stop-color="#FD1D1D"/>
</linearGradient>
</defs>
</svg>
